<svg width="303" height="100" viewBox="0 0 303 100" fill="none" xmlns="http://www.w3.org/2000/svg">
<path d="M6.19949 0.750015C95.6963 5.7084 185.683 5.81015 300.101 3.79545M3.50012 1.29289C69.4611 4.7773 136.122 3.73392 300.09 3.42014M300.985 1.10295C301.834 35.9487 302.509 78.9444 299.958 94.6032M297.881 3.18559C297.281 24.0136 299.002 47.6953 298.06 95.5845M299.829 97.2461C196.271 89.6373 97.0061 93.8007 4.93611 95.4647M298.238 96.6835C204.927 99.7759 106.524 99.6748 2.57597 94.4778M5.37838 94.1422C-0.627844 67.8209 3.60047 43.4555 0.750031 1.58725M1.64425 94.9348C3.65604 57.4825 6.94108 21.7165 4.84992 1.3952" stroke="white" stroke-width="1.5" stroke-linecap="round"/>
</svg>
